<svg width="70" height="70" viewBox="0 0 70 70" fill="none" xmlns="http://www.w3.org/2000/svg">
<path d="M35 39.3333C44.5729 39.3333 52.3333 31.5729 52.3333 22C52.3333 12.427 44.5729 4.66663 35 4.66663C25.4271 4.66663 17.6667 12.427 17.6667 22C17.6667 31.5729 25.4271 39.3333 35 39.3333Z" stroke="white" stroke-width="4.33333" stroke-linecap="round" stroke-linejoin="round"/>
<path d="M19.7859 31.184L6.83334 54.5L18.5956 54.4431C18.9725 54.4412 19.3433 54.5376 19.6715 54.7229C19.9997 54.9081 20.274 55.1758 20.4671 55.4994L26.3333 65.3333L38.2947 39.0192" stroke="white" stroke-width="4.33333" stroke-linecap="round" stroke-linejoin="round"/>
<path d="M49.969 30.6666L63.1667 54.5L51.4044 54.4431C51.0275 54.4412 50.6567 54.5376 50.3285 54.7228C50.0003 54.9081 49.7261 55.1757 49.5329 55.4993L43.6667 65.3333L35 46.2666" stroke="white" stroke-width="4.33333" stroke-linecap="round" stroke-linejoin="round"/>
<path d="M35 30.6667C39.7865 30.6667 43.6667 26.7865 43.6667 22C43.6667 17.2136 39.7865 13.3334 35 13.3334C30.2135 13.3334 26.3333 17.2136 26.3333 22C26.3333 26.7865 30.2135 30.6667 35 30.6667Z" stroke="white" stroke-width="4.33333" stroke-linecap="round" stroke-linejoin="round"/>
</svg>
