<svg width="59" height="59" viewBox="0 0 59 59" fill="none" xmlns="http://www.w3.org/2000/svg">
<g clip-path="url(#clip0_354_145)">
<path d="M53.4471 29.8195H53.4601V29.7627C53.4601 16.696 42.8294 6.06531 29.7627 6.06531C16.6961 6.06531 6.06534 16.696 6.06534 29.7627V31.5812C6.06534 32.5545 5.277 33.3429 4.30366 33.3429H2.48516C1.51182 33.3429 0.723485 32.5545 0.723485 31.5812V29.7636C1.24359 14.2011 13.5644 0.723454 29.7627 0.723454C45.961 0.723454 58.2819 14.2012 58.802 29.7637V48.5979C58.802 54.2334 54.2334 58.8019 48.5979 58.8019H27.9442C24.9626 58.8019 22.5455 56.3849 22.5455 53.4032C22.5455 50.4216 24.9626 48.0046 27.9442 48.0046H31.5812C34.5629 48.0046 36.9799 50.4216 36.9799 53.4032V53.4601H37.0367H48.5979C51.2831 53.4601 53.4601 51.2831 53.4601 48.5979H53.4033C53.4601 48.5978 53.4601 48.5978 53.4601 48.5976V48.597V48.5945L53.4601 48.5844L53.4601 48.5446L53.4601 48.3893L53.4599 47.7998L53.4593 45.6937C53.4587 43.9495 53.4578 41.621 53.4567 39.2838C53.4545 34.8551 53.4514 30.3927 53.4471 29.8195ZM18.8517 20.727C20.8286 20.727 22.4319 22.3303 22.4319 24.3072V37.0367C22.4319 39.0136 20.8286 40.6169 18.8517 40.6169H17.0332C13.0468 40.6169 9.81601 37.3861 9.81601 33.3997V27.9442C9.81601 23.9578 13.0468 20.727 17.0332 20.727H18.8517ZM49.7094 33.3997C49.7094 37.3861 46.4786 40.6169 42.4923 40.6169H40.6737C38.6968 40.6169 37.0936 39.0136 37.0936 37.0367V24.3072C37.0936 22.3303 38.6968 20.727 40.6737 20.727H42.4923C46.4786 20.727 49.7094 23.9578 49.7094 27.9442V33.3997Z" fill="white" stroke="white" stroke-width="0.113657"/>
</g>
<defs>
<clipPath id="clip0_354_145">
<rect width="58.1921" height="58.1921" fill="white" transform="translate(0.666656 0.666626)"/>
</clipPath>
</defs>
</svg>
